<svg xmlns="http://www.w3.org/2000/svg" version="1.1" xmlns:xlink="http://www.w3.org/1999/xlink" xmlns:svgjs="http://svgjs.dev/svgjs" width="2880" height="720" preserveAspectRatio="none" viewBox="0 0 2880 720"><g mask="url(&quot;#SvgjsMask2814&quot;)" fill="none"><path d="M510.02509209201565 464.4045393484506L609.3390930066511 547.7388808866613 593.3594336302262 365.09053843381525z" fill="rgba(22, 178, 217, 0.4)" class="triangle-float1"></path><path d="M1108.564832012816 413.3300326513675L1167.8063598034064 529.8725181658004 1231.7127048608827 435.1274653432787z" fill="rgba(22, 178, 217, 0.4)" class="triangle-float1"></path><path d="M1540.2300663162937 88.99262458065587L1491.9420437870203 163.34965864537304 1627.6216061487328 198.60317540692438z" fill="rgba(22, 178, 217, 0.4)" class="triangle-float3"></path><path d="M1809.6641344976972 167.76337573291858L1875.3263101039165 77.387144369715 1719.2879031344937 102.1012001266993z" fill="rgba(22, 178, 217, 0.4)" class="triangle-float3"></path><path d="M2570.7275381443214 359.47778821628077L2502.9646646933697 232.0343587491618 2443.2841086772023 427.2406616672324z" fill="rgba(22, 178, 217, 0.4)" class="triangle-float3"></path><path d="M1805.1349963252592 232.18396573750456L1918.5842696982195 27.975273666175866 1714.3755776268908 27.975273666175895z" fill="rgba(22, 178, 217, 0.4)" class="triangle-float1"></path><path d="M1259.9322624942215 567.8487352768367L1423.9780329789983 386.00625767186773 1215.3808597920413 337.84780562428915z" fill="rgba(22, 178, 217, 0.4)" class="triangle-float3"></path><path d="M2884.024501210837 602.8781795928686L2775.5875148338873 573.8225766635002 2854.9688982814687 711.3151659698185z" fill="rgba(22, 178, 217, 0.4)" class="triangle-float1"></path><path d="M1599.551275244128 4.640063108386116L1363.6310350127676 37.567243292754384 1488.9471897801736 203.86739754222236z" fill="rgba(22, 178, 217, 0.4)" class="triangle-float3"></path><path d="M297.24861122851706 584.6577872313464L304.37512995779923 448.675709250258 96.83875362152548 505.976970146879z" fill="rgba(22, 178, 217, 0.4)" class="triangle-float2"></path><path d="M2837.743516948018 541.2413841634797L2820.001444779515 708.512304883095 2955.353688419812 651.0586861403222z" fill="rgba(22, 178, 217, 0.4)" class="triangle-float2"></path><path d="M263.7335993153549 426.5294602409448L198.52895362369836 519.6513450158099 370.8141036318243 570.8973711658622z" fill="rgba(22, 178, 217, 0.4)" class="triangle-float3"></path><path d="M509.7501270719663 687.5840553383293L655.0087087809774 603.9034520035041 529.397717771295 528.428754188761z" fill="rgba(22, 178, 217, 0.4)" class="triangle-float3"></path><path d="M1926.2534982165878 480.85126737024126L1895.5280525130215 654.1380571608282 2040.9891376988521 604.0517888722665z" fill="rgba(22, 178, 217, 0.4)" class="triangle-float1"></path><path d="M1605.9346184778221 250.08156706483942L1672.4126822081932 468.26499080562485 1810.9159317849567 324.8406773103852z" fill="rgba(22, 178, 217, 0.4)" class="triangle-float1"></path><path d="M376.0997091038669 190.91779014398708L480.3065075535728 371.80716168298926 574.294556274539 215.38478061052442z" fill="rgba(22, 178, 217, 0.4)" class="triangle-float1"></path><path d="M2831.3683690043517 329.9756925227721L2717.5313383937087 167.3995641627409 2668.7922406443204 443.8127231334154z" fill="rgba(22, 178, 217, 0.4)" class="triangle-float3"></path><path d="M1005.5035865651528 420.3515918799804L1095.4339143939862 513.6549575039024 1128.553799896252 405.3246932849213z" fill="rgba(22, 178, 217, 0.4)" class="triangle-float1"></path><path d="M1578.4546136409306 453.9417222412067L1398.9070685716758 515.7648999069219 1640.2777913066457 633.4892673104615z" fill="rgba(22, 178, 217, 0.4)" class="triangle-float3"></path><path d="M1139.5740646391066 300.9591474297078L1281.6926448621227 373.5428688157132 1276.8242045058087 234.12897767953817z" fill="rgba(22, 178, 217, 0.4)" class="triangle-float3"></path></g><defs><mask id="SvgjsMask2814"><rect width="2880" height="720" fill="#ffffff"></rect></mask><style>
                @keyframes float1 {
                    0%{transform: translate(0, 0)}
                    50%{transform: translate(-10px, 0)}
                    100%{transform: translate(0, 0)}
                }

                .triangle-float1 {
                    animation: float1 5s infinite;
                }

                @keyframes float2 {
                    0%{transform: translate(0, 0)}
                    50%{transform: translate(-5px, -5px)}
                    100%{transform: translate(0, 0)}
                }

                .triangle-float2 {
                    animation: float2 4s infinite;
                }

                @keyframes float3 {
                    0%{transform: translate(0, 0)}
                    50%{transform: translate(0, -10px)}
                    100%{transform: translate(0, 0)}
                }

                .triangle-float3 {
                    animation: float3 6s infinite;
                }
            </style></defs></svg>